<svg width="97" height="94" viewBox="0 0 97 94" fill="none" xmlns="http://www.w3.org/2000/svg">
<path d="M90.9807 15.501C92.4649 12.1888 83.2158 12.1888 79.98 12.1888C76.7441 12.1888 67.0766 16.5669 67.0766 16.5669C67.9133 20.3338 67.6223 23.1768 67.6223 23.1768C66.6074 14.0913 62.7495 12.8236 61.3289 12.7726C60.3722 12.7381 51.7687 13.5529 46.232 14.0913L46.5776 14.1477C46.8783 14.0993 47.1824 14.075 47.487 14.075C49.506 14.075 50.983 15.1517 51.5523 16.9852L60.625 20.4848C60.8593 20.5755 61.06 20.7361 61.1998 20.945C61.4566 21.3646 61.5981 21.8446 61.6099 22.3365C61.6218 22.8283 61.5035 23.3146 61.2671 23.7461C61.0979 24.068 60.5868 25.0484 59.3427 25.0484C58.8692 25.0267 58.4023 24.9284 57.9603 24.7574C57.9789 24.8168 57.9929 24.8777 58.0021 24.9393C58.0446 25.182 58.0353 25.431 57.9748 25.6698C57.9143 25.9087 57.804 26.1321 57.6511 26.3253C57.4891 26.513 57.2809 26.6553 57.0472 26.7382C60.2667 28.8336 63.0332 31.6001 64.8248 33.6027C65.7325 34.5939 66.6956 35.5327 67.7096 36.4148C69.5485 38.0718 71.1655 39.5305 71.884 41.9224C72.4206 43.7104 72.4551 46.0204 71.7021 49.329C70.3052 55.4605 71.6748 58.0288 72.3278 58.8491C72.8244 59.4694 73.4192 59.784 74.0958 59.784C74.383 59.7857 74.6685 59.7383 74.9398 59.644C75.0635 59.6003 75.1781 59.5549 75.289 59.5094C75.5719 59.1047 75.8236 58.679 76.042 58.2362C76.2239 57.8597 76.4058 57.4613 76.5604 57.0448C77.4699 54.6511 77.9155 51.6372 78.1629 48.3559C78.4357 44.7326 77.3898 40.6292 76.8787 37.1423C76.3021 33.2699 76.3949 30.1595 79.6689 29.3174C85.0438 27.9405 88.4433 21.145 90.2331 17.1689C90.4896 16.5978 90.7133 16.0776 90.9061 15.6519C90.9461 15.601 90.9589 15.5501 90.9807 15.501ZM73.883 28.1005C69.2775 30.4215 67.8679 25.6105 67.8679 25.6105C70.558 28.6789 72.2842 27.6913 73.7302 27.2238C81.8807 24.5955 81.8753 20.332 81.8134 19.6044C81.8134 19.5681 81.8134 19.5335 81.8007 19.4971C81.8007 19.4971 81.8007 19.5353 81.8134 19.6044C82.5101 24.8374 78.4648 25.7942 73.8903 28.1005H73.883ZM40.266 18.4767C42.696 19.4735 46.814 21.1232 48.2346 21.4379C50.29 21.8944 53.9441 23.4551 55.4666 24.8938C56.989 26.3326 56.798 25.1212 56.798 25.1212C54.9282 22.4547 50.7138 20.8304 50.2227 20.6485C50.7847 20.854 56.5634 22.9767 57.9021 23.446C59.3099 23.9407 59.7301 24.0553 60.1866 23.1804C60.3213 22.9424 60.3921 22.6736 60.3921 22.4001C60.3921 22.1266 60.3213 21.8578 60.1866 21.6198L50.5173 17.8983C49.9462 14.5479 46.5976 15.3864 46.5976 15.3864L44.082 14.9662L43.7183 15.2682C42.5101 16.2742 41.3576 17.3453 40.266 18.4767ZM17.4005 5.75528C14.6212 5.45153 11.2344 6.98668 10.5742 8.25446C9.91389 9.52224 13.0606 11.9887 15.1414 12.2269C15.5725 12.2761 15.9581 12.3052 16.3001 12.3197C16.9605 12.368 17.6243 12.3369 18.2772 12.2269C18.2772 12.2269 18.5064 11.9305 18.8411 11.5267C19.4595 10.7773 20.4363 9.65502 20.9783 9.33307C21.8168 8.83833 20.1798 6.06086 17.4005 5.75528ZM45.9028 2.79229C46.2429 2.87596 46.5885 2.96145 46.9395 3.05239C46.9395 3.05239 46.5867 2.92689 45.9682 2.7359C43.4891 1.97196 36.7227 0.14396 31.0278 0.997027C31.0278 0.997027 24.7598 4.75307 21.5112 8.7874C21.5112 8.7874 26.2695 4.00368 31.1805 1.37718C31.1805 1.37718 36.6573 0.553214 45.9028 2.79229ZM25.7857 48.8106C26.4987 52.2265 25.3819 58.5217 25.3437 60.0787C25.2927 62.1595 27.9902 63.9384 27.9902 63.9384L27.4245 66.2794C27.1213 66.5123 26.8683 66.8041 26.6807 67.1373C26.4932 67.4705 26.3749 67.8382 26.3332 68.2183C26.1513 69.6443 26.9334 70.9212 28.0884 71.0722C29.2434 71.2231 30.3275 70.1882 30.513 68.7622C30.6043 68.114 30.4763 67.4539 30.1492 66.8869L32.5356 57.0211L33.2959 57.203L34.0053 54.2673L34.9238 50.5495L36.5827 43.6922C35.4913 42.7209 34.3418 41.766 33.1413 40.8711L32.2319 44.6035C30.9648 43.624 29.5832 42.8025 28.1175 42.157L28.9142 38.3264C28.9142 38.3264 27.2135 37.1423 25.8493 36.8113L24.8489 41.1057C15.778 39.1977 8.59701 45.7767 9.51192 45.8567C9.73564 45.8749 10.3031 45.8858 11.0944 45.8949C14.4539 45.9349 21.8677 45.9604 24.3324 46.6225C25.1018 46.8298 25.5456 47.6556 25.7857 48.807V48.8106ZM18.3936 93.6739C29.4435 94.4015 39.1528 83.6281 40.0823 69.6007C40.5261 62.8962 38.8836 56.6646 35.8424 51.9046L34.9238 55.7352C36.8501 59.2638 37.8632 63.8329 37.5376 68.7494C36.8392 79.2991 30.2511 87.4441 22.8245 86.9512C15.3979 86.4583 9.943 77.5129 10.6378 66.9687C11.3108 56.8138 17.4442 48.8834 24.5288 48.7488C24.3033 47.9102 24.025 47.8029 24.0195 47.8011C21.8932 47.2336 15.1578 47.1645 11.9201 47.1299C10.5978 47.1154 9.88479 47.1063 9.51737 47.0845C4.29711 51.388 0.626563 58.5927 0.0717963 66.9505C-0.857664 80.9761 7.3456 92.9409 18.3936 93.6739ZM48.6911 57.1812L40.155 78.0986C46.7667 78.0986 67.8133 71.0976 72.3897 69.6389L72.4442 69.6225C75.0289 68.7931 78.0319 65.5209 80.1655 62.5542C81.0891 61.299 81.9097 59.9711 82.6192 58.5836C82.7814 58.2691 82.9089 57.938 82.9993 57.5959C83.0142 57.5266 83.0216 57.4558 83.0212 57.3849C83.0212 56.2936 80.8749 56.3481 79.5343 56.5555C78.9268 56.6501 78.483 56.7756 78.483 56.8356C78.483 56.8956 78.483 56.9829 78.483 57.1485C78.4733 57.5625 78.3876 57.9713 78.2302 58.3544C77.9428 59.0619 77.3335 59.875 76.0602 60.4916C75.8235 60.6057 75.5806 60.7065 75.3327 60.7935C74.8672 60.9629 74.3719 61.0347 73.8775 61.0045C71.0091 60.8227 68.7173 56.9138 70.5035 49.0707C71.0491 46.7061 71.1619 44.9109 70.96 43.4757C70.3889 39.3796 67.2312 38.1482 63.9063 34.4285C59.4136 29.4029 53.8059 25.1139 48.6802 24.9702C43.5546 24.8265 38.2252 22.8384 37.5158 20.7576C37.3812 20.3575 37.6704 19.7299 38.2343 18.9751C38.4653 18.6677 38.7399 18.3403 39.0509 17.9965C40.1341 16.8386 41.2844 15.7453 42.4959 14.7225L42.8252 14.4424C43.1235 14.1877 43.4236 13.9367 43.7219 13.6912C43.9856 13.4747 44.2494 13.2601 44.5095 13.0527C46.5958 11.3793 48.4656 10.0461 48.984 9.79689C50.3554 9.13663 51.0648 8.42544 53.9587 8.37451C56.8526 8.32358 67.4077 4.82219 59.2335 0.964287C51.0594 -2.89361 44.4786 6.02266 43.8692 6.73204C43.2599 7.44141 18.8975 17.6946 17.2223 16.8833C15.547 16.0721 18.1317 12.518 18.1317 12.518C15.5943 14.2441 7.65118 20.1446 7.23283 24.9793C6.81448 29.8139 15.3906 39.5706 15.3906 39.5706L16.0509 39.3668C13.2643 35.9673 15.7253 34.725 15.7253 34.725C21.5112 33.1644 27.3208 35.4198 32.3701 38.8521C32.7339 39.0946 33.0904 39.3456 33.4396 39.6051C34.6437 40.48 35.8042 41.424 36.8955 42.3699C37.2472 42.673 37.591 42.9798 37.9269 43.2902C42.656 47.6101 46.1119 52.0955 47.2433 53.2942C49.8389 56.0389 48.6911 57.1812 48.6911 57.1812ZM15.0159 26.7218C15.0159 26.7218 10.2577 29.6484 9.90116 29.3101C7.24192 26.7873 8.99171 23.3732 8.99171 23.3732L15.0159 26.7218ZM30.9768 28.9554C30.6731 30.5797 27.399 29.9686 16.1327 26.7218L29.709 22.4074C29.709 22.4074 31.286 27.3384 30.9768 28.9627V28.9554ZM52.931 24.6173C51.374 23.7443 49.3241 22.9294 47.9618 22.6275C46.3539 22.2637 41.812 20.4448 39.4038 19.4444C39.1295 19.7518 38.9021 20.0981 38.729 20.472C39.3893 21.7071 43.7619 23.5878 48.7202 23.7352C50.1628 23.7954 51.5856 24.0935 52.931 24.6173ZM94.6221 17.0816C93.728 16.6867 92.7384 16.5603 91.7737 16.7178C90.013 20.7049 86.3807 28.8572 79.9781 30.496C77.8373 31.0417 77.5299 32.8606 78.0319 36.5857C78.1556 37.4952 78.3284 38.5392 78.5339 39.7033C79.0505 42.5972 79.5816 45.5911 79.367 48.4341C79.1487 51.3443 78.8049 53.6562 78.2993 55.5642C78.5542 55.4852 78.8143 55.4244 79.0778 55.3823C79.2033 55.3605 79.3706 55.3332 79.5671 55.3059C80.0493 55.2394 80.5354 55.2047 81.0222 55.2022C82.3846 55.2022 83.3013 55.5187 83.8233 56.1662C84.1136 56.5253 84.2624 56.9782 84.2417 57.4395L86.4589 57.5559C86.6644 57.9379 86.9373 58.1725 87.2356 58.1725C87.7194 58.1725 88.1323 57.5613 88.3069 56.6937C88.4429 56.0014 88.423 55.2875 88.2487 54.6038C88.0486 53.8762 87.6703 53.3779 87.2356 53.3779C86.97 53.3779 86.7263 53.5598 86.5298 53.8726C85.1038 53.356 81.0004 51.5826 81.1259 48.3522C81.135 48.134 81.1404 47.8975 81.1422 47.6447C81.1768 44.6853 80.8694 39.5269 81.1331 35.8855C81.2514 34.2721 81.4806 32.9552 81.9025 32.264C83.3577 29.8776 82.9029 29.472 85.1857 29.1719C85.1857 29.1719 93.4599 22.4219 95.1333 20.9504C96.8067 19.4789 95.739 17.5945 94.6221 17.0816ZM73.1591 70.6447C75.6255 73.6314 78.8122 75.4103 82.2627 75.3448C89.833 75.2011 95.8026 66.2503 95.5953 55.3368C95.397 44.8326 89.5401 36.3547 82.3427 35.8745C82.1699 38.2955 82.2445 41.5459 82.2972 43.8213C82.3082 44.3306 82.3185 44.8157 82.3282 45.2765C83.505 43.4576 84.9638 42.3935 86.5262 42.4226C90.2531 42.4899 93.1598 48.7579 93.0215 56.4282C92.8833 64.0985 89.7475 70.2519 86.0224 70.1827C83.7087 70.1409 81.7097 67.7054 80.5656 64.0312C80.4438 64.1913 80.3219 64.3495 80.2019 64.5078C78.4303 66.7923 75.8001 69.648 73.1682 70.6502L73.1591 70.6447Z" fill="white"/>
</svg>
