<svg width="97" height="63" viewBox="0 0 97 63" fill="none" xmlns="http://www.w3.org/2000/svg">
<path d="M29.1877 38.5557C27.3924 38.5557 25.9321 42.3618 25.9321 47.0697C25.8766 49.3017 26.2729 51.5218 27.0971 53.5968C26.7569 52.1102 26.5882 50.5895 26.5944 49.0645C26.5944 44.3567 28.0546 40.5505 29.85 40.5505C30.6479 40.5505 31.3741 41.3006 31.9406 42.5294C31.3661 40.1436 30.3527 38.5557 29.1877 38.5557Z" fill="white"/>
<path d="M73.4747 12.2476C74.2726 12.8142 76.1159 14.418 76.1159 14.418L75.9962 14.0031C76.3671 14.0292 76.7395 13.9775 77.0894 13.8515C77.4165 13.668 77.0893 10.8193 75.8206 9.8618C74.7041 9.50236 73.5082 9.46914 72.3735 9.76604C71.8549 10.0932 72.19 11.1784 72.19 11.1784C72.5823 11.5759 73.0126 11.9341 73.4747 12.2476Z" fill="white"/>
<path d="M96.9784 35.6113C96.8827 32.6908 95.7099 29.4113 95.7099 28.8448C90.3565 35.0288 43.4523 35.9065 38.3941 32.1403C34.5087 29.2437 34.3093 27.4484 31.9078 25.0466C27.7751 20.9133 6.17 22.9161 2.95477 23.0836C3.21805 22.2139 3.49729 21.3202 3.75259 20.5462C9.86393 19.7483 19.1347 18.4875 24.8231 18.3279C26.0634 18.2394 27.3086 18.4062 28.4819 18.8179C29.6551 19.2296 30.7315 19.8776 31.6445 20.7217C32.5062 21.6474 43.8832 21.5197 51.7497 22.0942C51.7497 22.0942 38.7212 22.3256 32.9131 22.158C33.0886 22.3974 33.2561 22.6288 33.3998 22.8443C33.3998 22.8443 37.1814 28.5495 38.3862 29.2757C49.7552 36.1299 94.2339 32.7387 94.8003 26.5866C94.8721 25.8365 94.8961 24.4242 94.8961 24.4242C94.4254 26.1717 89.3831 27.2808 88.322 27.1531L87.213 22.1181C90.8431 21.6474 92.5744 21.001 92.2553 20.0116C92.2553 20.0116 92.4627 18.312 88.7209 17.1071C86.495 16.3969 79.9448 15.3117 75.8201 14.8489C69.5997 14.0865 63.3382 13.7081 57.0712 13.7158C49.093 13.7158 34.3412 14.0669 28.7963 14.6973C25.7327 15.1601 25.0705 7.69939 24.504 5.97584C22.9881 1.37174 56.2495 2.3931 59.8397 3.41446C61.6826 3.92514 68.2807 7.66747 68.2807 7.66747C66.6056 6.00137 64.6607 4.63084 62.5283 3.61394C60.0237 2.32781 57.2678 1.60605 54.4544 1.49941C54.4389 1.2506 54.3424 1.0137 54.1796 0.824937C54.0168 0.636171 53.7966 0.505924 53.5528 0.454106C50.5008 -0.00312018 47.4071 -0.115538 44.33 0.118972C43.1151 0.221775 41.9128 0.440881 40.7397 0.773282C40.7397 0.773282 48.8137 0.573797 50.7604 0.972766C51.0898 1.02508 51.4033 1.1505 51.6779 1.33982C48.4388 1.22013 44.0348 1.25204 37.7559 1.46749C32.8094 1.64303 28.8123 1.90635 25.5412 2.26543C24.9798 1.55669 24.2093 1.04295 23.3392 0.79722C20.8101 0.39825 16.422 1.59516 14.1642 2.72025L11.8665 3.84535C11.8665 3.84535 18.5522 1.91433 21.2489 2.3931C21.5758 2.4319 21.8925 2.53207 22.1823 2.68833C15.3131 3.68576 12.401 5.08215 10.0793 6.67803C6.47317 9.15962 4.49457 17.3624 3.6409 18.4237C2.78722 19.4849 2.15694 22.8123 2.08514 23.3789C2.04525 23.706 1.95749 24.895 1.88568 25.8365C1.68623 26.8499 1.51868 27.7596 1.51868 27.7596C2.02929 27.0494 5.68333 25.4535 7.21515 31.837C7.64598 33.6324 7.92522 40.6144 9.32141 43.5588C8.6273 43.0082 8.12467 41.8113 7.638 39.9361C6.75241 36.7843 5.37218 29.7863 3.64888 28.9645C2.30853 28.3261 1.67027 28.6134 1.38305 29.1719C1.09584 29.7305 0.457577 32.8903 1.8777 39.2898C1.8777 39.2898 1.8777 35.5395 3.3457 34.6697C2.63564 36.2656 2.16492 39.1781 2.16492 42.5454C2.16492 47.5883 3.15422 51.1472 4.34298 51.6898C5.99448 52.4398 11.0686 52.0967 12.0579 51.602C13.0472 51.1073 13.2627 47.7799 13.2627 47.7799C13.2627 47.7799 15.2492 46.9101 15.9753 46.6548C19.8687 47.2373 23.9535 47.7001 24.4721 47.74C24.4721 47.8118 24.4721 47.8916 24.4721 47.9714C24.4721 55.2007 26.6023 61.1294 29.3149 61.7677C31.5807 62.6135 39.8701 61.1852 41.003 60.4352C42.1359 59.6851 43.3965 53.5968 43.6518 52.5116C48.0398 50.6365 73.8973 48.7773 76.4344 48.7214H77.2322C77.328 49.0885 77.4716 49.5752 77.695 50.2136C78.3253 52.0169 80.4874 55.3443 82.2825 55.8869C83.9074 56.4599 85.6456 56.6365 87.3525 56.4019C89.0594 56.1674 90.6856 55.5285 92.0957 54.5384C94.7285 52.7829 95.287 49.264 95.3828 46.7744C94.8746 47.0264 94.3392 47.2192 93.7871 47.349C94.3004 47.1124 94.7614 46.776 95.1434 46.3595C95.4207 46.1563 95.6564 45.9017 95.8375 45.6095C96.5077 44.2929 97.0742 38.5397 96.9784 35.6113ZM42.487 28.8208C38.3383 27.975 37.3969 25.4296 36.8304 24.6715C36.5796 24.2168 36.407 23.7232 36.3198 23.2113C40.4047 23.6582 49.085 23.2113 49.6993 23.2113H50.7684L52.0609 29.2916C49.5078 29.3634 45.2155 29.3874 42.487 28.8208ZM55.1245 23.2353C61.8422 23.2353 72.6128 23.0836 79.1949 22.7246C80.982 22.6208 82.5856 22.5171 84.0217 22.3974C84.1568 22.5317 84.2533 22.6998 84.301 22.8842C84.4047 23.2512 84.5882 23.8497 84.7797 24.48L79.897 24.9109C75.0303 25.3338 60.0152 25.3259 55.7947 25.3099L55.1245 23.2353ZM85.2823 28.5814C84.2212 29.2916 63.741 30.688 57.2388 29.898L56.7521 28.358L57.8611 28.4298C61.9699 28.7011 81.3969 27.1212 85.3621 26.834C85.5137 27.6878 85.5695 28.4059 85.2663 28.5974L85.2823 28.5814ZM71.7751 15.4155C77.2003 15.974 82.0591 16.4608 84.5962 17.1949C91.8484 19.2695 73.4984 19.5408 68.8471 19.4052C65.8234 16.8757 54.2549 15.3357 38.9925 15.2798C52.755 14.7851 66.5893 14.8808 71.7751 15.4155ZM9.5448 9.6304C11.76 7.65975 14.6222 6.5721 17.5869 6.5743C20.6904 6.5743 24.52 12.7344 23.6344 15.9581C22.2701 16.1176 21.201 16.2693 21.1611 15.7586C21.1611 15.6309 21.1611 15.3277 21.1611 14.9606C21.1611 14.809 15.8955 14.6893 15.8875 14.5218C16.9566 14.3223 20.0123 14.059 21.1531 14.027C21.1053 13.0137 20.9058 11.9045 20.2117 11.6332C18.991 11.2103 14.4754 11.7848 14.1323 12.2955C13.6616 12.9977 12.6244 15.8304 13.5658 16.8677C14.2773 17.1989 15.0551 17.3626 15.8396 17.3465C10.3426 17.921 5.64344 17.9609 5.46792 16.4687C6.29765 14.4978 7.53428 11.5774 9.5448 9.6304ZM4.1914 49.6869C3.21805 49.6869 2.42023 46.6388 2.42023 42.8805C2.42023 39.1222 3.23401 36.0661 4.1914 36.0661C5.14879 36.0661 5.97852 39.0983 5.97852 42.8805C5.97852 46.6627 5.18868 49.6869 4.1914 49.6869ZM7.38269 29.5709L21.4643 30.4566L21.568 31.9168L7.38269 29.5709ZM12.9675 44.4923L22.0627 44.3088L22.9881 43.471C22.9881 43.471 23.5067 45.8648 23.6264 46.0723C23.7461 46.2797 12.9675 44.4923 12.9675 44.4923ZM29.7218 58.7196C27.4879 58.7196 25.6688 53.8841 25.6688 47.9235C25.6688 41.9629 27.4081 37.1274 29.642 37.1274C31.5967 37.1274 33.7029 41.8591 33.7029 47.9235C33.7029 53.9878 31.8839 58.7196 29.642 58.7196H29.7218ZM32.7376 33.9835C31.8919 31.5897 30.8068 29.8103 28.6846 29.3156C22.8685 27.9591 22.4536 32.1722 22.8525 39.7526C22.8525 39.7526 21.1212 31.1987 23.0201 28.7011C23.5543 27.8748 24.2833 27.1923 25.143 26.7137C26.0028 26.2351 26.9669 25.975 27.9506 25.9562C29.9053 26.0121 31.6445 27.2489 32.7376 29.5948C33.9901 32.3397 37.2373 45.2185 37.2373 45.2185C35.522 41.4921 33.2242 35.5794 32.6578 33.9835H32.7376ZM43.7475 42.6012C45.1566 42.2249 46.5291 41.7228 47.8484 41.1011C49.3802 40.2313 49.444 37.9094 49.444 37.3747C49.444 36.8401 44.8725 36.7683 42.2636 36.6885C41.8642 36.3816 41.4857 36.0484 41.1307 35.6911C41.1307 35.6911 49.6674 35.7789 51.5024 35.8666C53.3374 35.9544 53.2656 36.7444 51.5024 39.9122C49.8509 42.7848 46.4761 42.7608 43.6678 42.6012H43.7475ZM88.9443 45.6095C79.522 46.4074 61.0205 47.8995 56.792 48.0033C54.7815 48.0033 52.1008 48.0432 49.3961 48.0033L67.8658 45.7451L52.2364 45.9286L73.8255 43.2875L51.2631 43.5109L81.2373 40.5346L53.0901 40.8059C57.3664 38.8908 88.1944 38.1487 89.5507 39.4175C90.173 40 90.7474 42.4815 91.0905 44.2051C91.3537 45.2025 89.8778 45.5536 88.8645 45.6095H88.9443ZM96.7151 37.3588C96.5875 39.0504 94.8323 39.5132 94.1142 38.7153C93.6196 38.1567 91.6011 33.768 92.4468 33.776C95.1354 33.8159 95.1913 33.2334 96.4359 32.5871C96.396 32.5871 96.7391 36.9917 96.6353 37.3588H96.7151Z" fill="white"/>
</svg>
