<svg width="97" height="75" viewBox="0 0 97 75" fill="none" xmlns="http://www.w3.org/2000/svg">
<path fill-rule="evenodd" clip-rule="evenodd" d="M39.379 9.58162L63.7662 8.76784C64.0287 8.8466 64.3612 8.92535 64.7462 9.01285V0.192508C64.7462 0.141451 64.7665 0.0924863 64.8026 0.0563841C64.8387 0.020282 64.8877 0 64.9387 0C64.9898 0 65.0387 0.020282 65.0748 0.0563841C65.1109 0.0924863 65.1312 0.141451 65.1312 0.192508V9.14411C67.4588 9.72163 71.0202 10.8504 71.0814 14.6568L71.2827 27.4236L63.5562 22.8734L62.9786 50.4632L57.8772 50.7082C56.1971 45.073 52.1895 39.7878 45.3029 42.7454C40.7353 44.7055 34.0938 52.8258 34.0938 52.8258C34.9124 52.0884 35.8746 51.5284 36.9201 51.1808C36.9201 51.1808 42.8616 44.3467 46.2042 43.3054C52.942 41.2579 55.3746 45.0555 57.7459 50.6907H57.0372L58.0697 52.5633L71.6502 51.137L71.799 60.8674L72.499 60.7011L72.3503 50.927L69.9527 51.1808V50.122L63.9412 50.4107L64.0374 23.6609L71.274 27.5636L71.6327 49.8332H72.3415V47.9081H72.6215V46.3418L72.3677 17.4657H72.1665L72.0527 14.0443C72.0547 13.1733 71.8185 12.3184 71.3697 11.5719C70.9209 10.8255 70.2766 10.2159 69.5064 9.80913H75.0541L97 31.2737V49.5794L95.2499 49.5182C95.9587 51.6533 95.1099 57.2535 94.5586 57.586C94.0073 57.9185 89.7984 58.3823 89.1947 57.656C88.5909 56.9297 88.5821 54.7946 88.5821 54.7946L82.0631 55.2847L80.6281 56.0109C80.6981 58.9861 80.1731 61.2086 78.983 62.3724C77.9942 63.3437 76.6204 63.4925 74.1003 63.65C71.5802 63.8075 69.9964 63.0375 69.9264 61.4186L57.6759 64.35C57.1947 60.2374 57.9209 54.6021 54.8933 50.192C53.5195 48.1881 50.9557 50.0082 49.4244 55.9234C46.003 56.1247 39.7027 56.3347 32.0462 56.361C33.1545 51.434 33.9292 46.4379 34.365 41.4066C34.5488 38.939 33.2975 37.609 31.0224 37.6265L10.7478 37.7752C10.0171 37.7871 9.29317 37.9171 8.60401 38.1602C8.95402 35.8414 16.2868 31.3787 18.7894 31.3612C18.8682 31.125 18.9557 30.8975 19.0344 30.6525C29.8498 29.3661 52.0407 29.3836 53.3183 30.4774C54.7358 25.6823 55.8909 20.5808 57.2122 21.0796C57.2122 21.0796 57.7022 21.3508 55.8033 20.4671C53.9045 19.5833 37.4276 20.2745 27.951 20.8433C25.3022 20.9191 22.666 21.2384 20.0757 21.7971C20.6882 20.7383 20.7932 20.047 22.0358 19.3733C23.8893 18.4044 25.8597 17.678 27.8985 17.2119V3.05387C27.8985 3.00281 27.9188 2.95385 27.9549 2.91775C27.991 2.88164 28.04 2.86136 28.091 2.86136C28.1421 2.86136 28.191 2.88164 28.2271 2.91775C28.2632 2.95385 28.2835 3.00281 28.2835 3.05387V17.1244C28.5985 17.0544 28.896 16.9844 29.1586 16.9319C32.5274 14.4906 31.9937 9.85289 39.2477 9.61663L39.379 9.58162ZM50.7544 20.8346L53.0207 20.7821C52.3884 21.2055 51.8616 21.7683 51.4807 22.4271H48.3568L48.5231 21.9021C48.8906 20.7121 49.8706 20.8521 50.7982 20.8346H50.7544ZM51.0169 23.2934C50.1331 25.3322 49.6781 27.7998 49.1268 29.6374C48.1743 29.4025 47.1874 29.3403 46.213 29.4537L48.1293 23.3284H51.0869L51.0169 23.2934ZM93.6398 51.7758C93.8822 52.4567 93.966 53.1839 93.8848 53.9021C93.9664 54.6232 93.8826 55.3533 93.6398 56.0372C93.402 55.3522 93.3184 54.6232 93.3948 53.9021C93.3188 53.1839 93.4025 52.4578 93.6398 51.7758ZM94.6286 51.6708C94.8709 52.3517 94.9547 53.0789 94.8736 53.7971C94.9592 54.5268 94.8754 55.2664 94.6286 55.9584C94.3908 55.2734 94.3072 54.5444 94.3836 53.8234C94.3036 53.0965 94.3874 52.361 94.6286 51.6708ZM75.8941 53.5521C76.3754 53.5521 76.7692 55.4334 76.7167 57.7523C76.6642 60.0711 76.2792 61.9437 75.8416 61.9437C75.4041 61.9437 74.9666 60.0623 74.9666 57.7523C74.9666 55.4422 75.4129 53.5521 75.8941 53.5521ZM79.0355 52.9921C79.5168 52.9921 79.9105 54.6896 79.8668 56.7722C79.7968 61.7424 78.0467 61.7687 78.1167 56.7722C78.1167 54.6896 78.5542 52.9921 79.0355 52.9921ZM2.16376 64.7088C2.25583 65.0166 2.41847 65.2987 2.63873 65.5327C2.859 65.7666 3.13081 65.9459 3.43256 66.0563C4.10703 66.2029 4.79142 66.2994 5.48014 66.3451C5.42314 67.7617 5.74964 69.1675 6.42517 70.414C7.42271 72.2516 9.20778 72.0941 12.3754 72.0941C15.543 72.0941 17.8706 69.3027 17.7481 67.5964C17.7481 67.4564 17.7481 67.3339 17.7481 67.2289C27.5922 67.8326 39.3177 68.3752 41.8203 68.2177L43.8766 68.1039C43.8066 70.0115 44.1216 72.0766 44.4367 72.4791C44.8152 73.021 45.3194 73.4633 45.9061 73.7681C46.4927 74.0728 47.1444 74.231 47.8055 74.2291C49.2577 74.4205 50.7286 74.4205 52.1807 74.2291C54.6046 73.8966 55.7596 69.1452 56.2146 66.0388C56.8621 61.6637 55.5846 54.4446 54.3683 53.2546C53.7129 52.5353 52.8286 52.0653 51.8657 51.9245C51.0826 53.3134 50.4937 54.8032 50.1156 56.3522C49.1968 56.4047 48.0768 56.466 46.773 56.5185L46.6155 56.8247C41.9691 57.0172 34.8725 57.1747 26.7697 57.1047C19.3582 57.0347 11.1154 56.7722 3.1438 56.1684C2.60538 56.1128 2.08721 55.9331 1.62999 55.6434C1.4292 55.7318 1.21016 55.7708 0.991211 55.7572V63.8337C2.05 65.1725 43.4566 67.0364 48.1468 65.2076C48.284 62.5069 48.6322 59.8211 49.1881 57.1747H49.9144C49.291 59.975 48.9076 62.8234 48.7681 65.6888C48.1186 65.9026 47.4459 66.0377 46.7642 66.0913C46.4142 66.1438 46.003 66.1876 45.5567 66.2313L44.0866 66.3276C37.9614 66.7039 26.7785 66.4676 17.3368 65.9951H17.2756C12.22 65.8188 7.17641 65.3895 2.16376 64.7088ZM52.4782 56.3697C53.8433 56.3697 54.9458 59.5286 54.9458 63.4225C54.9458 67.3164 53.8433 70.4753 52.4782 70.4753C51.1132 70.4753 50.0019 67.3339 50.0019 63.405C50.0019 59.4761 51.1132 56.3522 52.4695 56.3522L52.4782 56.3697ZM16.3568 26.391V31.265C15.1632 31.7502 14.0128 32.3356 12.9179 33.015V28.6399C12.8356 28.1704 12.9212 27.6869 13.1596 27.2741C13.3979 26.8614 13.7739 26.5457 14.2217 26.3823L16.3568 26.391ZM69.7339 47.3919H69.5939L67.4501 47.4794C67.0738 47.4794 66.8375 46.9018 66.8375 46.4818V40.6628C66.575 40.6628 66.3738 40.8816 66.3738 41.2491V47.9869C66.3738 48.4069 66.61 48.9932 66.9863 48.9844L69.1214 48.8969C69.4976 48.8969 69.7339 48.7657 69.7339 48.3369V47.3831V47.3919ZM69.7339 35.5701H69.5939L67.5026 35.1151C67.1263 35.0364 66.89 34.3976 66.89 33.9688V28.2636C66.6275 28.1849 66.4263 28.3686 66.4263 28.7361V35.4651C66.4263 35.8939 66.6625 36.5327 67.0388 36.6114L69.1739 37.0314C69.5501 37.1102 69.7864 37.0314 69.7864 36.6202V35.5614L69.7339 35.5701ZM19.4194 38.8865C20.4082 38.8865 21.1695 39.3328 21.1695 39.8841C21.1695 40.4353 20.3732 40.8903 19.4194 40.8903C18.4656 40.8903 17.6694 40.4441 17.6694 39.8841C17.6694 39.324 18.4656 38.8865 19.4194 38.8865ZM9.58405 54.6984H12.7867L13.2504 40.0941H10.8966C10.3314 40.0673 9.77799 40.2614 9.35339 40.6354C8.92879 41.0094 8.66632 41.5339 8.62151 42.0979C8.62151 46.0093 8.69151 49.1944 8.69151 53.1058C8.79652 54.2171 9.09403 54.7509 9.56655 54.6984H9.58405ZM13.5567 54.6984H18.7457L19.1569 41.3279C17.9844 41.2491 17.0568 40.7416 16.8818 40.0941H14.003L13.5567 54.6984ZM19.5157 54.6984H25.0634L25.5009 40.0941H22.0008C21.8345 40.7066 21.0032 41.1879 19.9445 41.3016L19.5332 54.6984H19.5157ZM25.8334 54.6984H29.2023C30.3836 54.6984 30.1298 54.8296 30.3049 53.6133C30.8532 49.6699 31.4074 45.7205 31.9674 41.7654C31.9245 41.3597 31.7525 40.9784 31.4769 40.6776C31.2013 40.3768 30.8365 40.1723 30.4361 40.0941H26.2797L25.8334 54.6984ZM64.2124 18.2182H65.2012C65.2708 18.2182 65.3376 18.2459 65.3868 18.2951C65.4361 18.3443 65.4637 18.4111 65.4637 18.4807V19.8633C65.4615 19.9322 65.4332 19.9977 65.3844 20.0465C65.3357 20.0952 65.2701 20.1236 65.2012 20.1258H64.2124C64.1428 20.1258 64.076 20.0981 64.0268 20.0489C63.9776 19.9997 63.9499 19.9329 63.9499 19.8633V18.4807C63.9487 18.4459 63.9547 18.4112 63.9674 18.3788C63.9802 18.3464 63.9995 18.317 64.0241 18.2924C64.0487 18.2678 64.0781 18.2485 64.1105 18.2357C64.1429 18.2229 64.1776 18.217 64.2124 18.2182ZM6.18891 60.9024L4.26384 60.8061C4.18896 60.8013 4.11389 60.812 4.04338 60.8376C3.97286 60.8633 3.90843 60.9033 3.85415 60.9551C3.79987 61.0069 3.75693 61.0694 3.72805 61.1386C3.69916 61.2079 3.68495 61.2824 3.68632 61.3574V63.2387C3.68606 63.3953 3.74577 63.546 3.85317 63.6599C3.96058 63.7738 4.10753 63.8423 4.26384 63.8512L6.18891 63.9562C6.2642 63.961 6.33966 63.9503 6.41064 63.9248C6.48162 63.8992 6.5466 63.8594 6.60155 63.8077C6.65651 63.756 6.70027 63.6936 6.73014 63.6244C6.76001 63.5551 6.77534 63.4804 6.77519 63.405V61.5237C6.77337 61.3654 6.71205 61.2136 6.60342 61.0985C6.49479 60.9834 6.34681 60.9134 6.18891 60.9024ZM36.9814 62.0137H33.21C33.0537 62.016 32.9046 62.0797 32.7949 62.191C32.6852 62.3024 32.6237 62.4524 32.6237 62.6087V64.49C32.626 64.644 32.6888 64.7909 32.7985 64.8989C32.9082 65.007 33.056 65.0676 33.21 65.0675H36.9814C37.0584 65.0675 37.1346 65.0524 37.2057 65.0229C37.2768 64.9935 37.3415 64.9503 37.3959 64.8958C37.4504 64.8414 37.4935 64.7768 37.523 64.7056C37.5525 64.6345 37.5676 64.5583 37.5676 64.4813V62.5912C37.5676 62.5146 37.5524 62.4388 37.5229 62.3681C37.4933 62.2975 37.45 62.2334 37.3954 62.1797C37.3408 62.126 37.2761 62.0836 37.2051 62.0551C37.134 62.0266 37.0579 62.0125 36.9814 62.0137ZM12.4279 60.9549L8.81402 60.7886C8.72764 60.7838 8.6412 60.7968 8.56008 60.8269C8.47896 60.8569 8.40489 60.9034 8.3425 60.9633C8.28011 61.0232 8.23073 61.0954 8.19744 61.1752C8.16415 61.2551 8.14766 61.3409 8.14899 61.4274V63.5625C8.15086 63.7416 8.22049 63.9134 8.34387 64.0433C8.46724 64.1731 8.63522 64.2515 8.81402 64.2625L12.4279 64.4288C12.5143 64.4336 12.6007 64.4206 12.6818 64.3905C12.763 64.3605 12.837 64.314 12.8994 64.2541C12.9618 64.1942 13.0112 64.122 13.0445 64.0422C13.0778 63.9623 13.0943 63.8765 13.0929 63.79V61.6549C13.0911 61.4758 13.0214 61.304 12.8981 61.1741C12.7747 61.0443 12.6067 60.9659 12.4279 60.9549ZM25.9209 61.7162L29.9198 61.8037C30.097 61.806 30.2662 61.878 30.3906 62.0041C30.5151 62.1302 30.5849 62.3002 30.5849 62.4774V64.6213C30.5849 64.7078 30.5676 64.7935 30.534 64.8732C30.5003 64.9529 30.4511 65.0251 30.3891 65.0854C30.3271 65.1458 30.2536 65.1931 30.173 65.2246C30.0924 65.2561 30.0063 65.2711 29.9198 65.2688L25.9209 65.1813C25.7438 65.179 25.5746 65.107 25.4501 64.9809C25.3257 64.8548 25.2559 64.6847 25.2559 64.5075V62.3637C25.257 62.2775 25.2752 62.1924 25.3092 62.1132C25.3432 62.034 25.3925 61.9623 25.4543 61.9022C25.5161 61.842 25.589 61.7947 25.6691 61.7628C25.7492 61.7308 25.8347 61.715 25.9209 61.7162ZM14.948 61.3836L23.0246 61.5499C23.1639 61.5544 23.2962 61.6123 23.3939 61.7117C23.4917 61.8111 23.5474 61.9443 23.5496 62.0837V64.3675C23.5496 64.4357 23.5359 64.5031 23.5094 64.5659C23.4828 64.6286 23.4438 64.6854 23.3948 64.7327C23.3458 64.7801 23.2878 64.8171 23.2242 64.8415C23.1606 64.866 23.0927 64.8774 23.0246 64.875L14.948 64.7088C14.8087 64.7043 14.6764 64.6464 14.5787 64.547C14.4809 64.4476 14.4252 64.3144 14.423 64.175V61.8912C14.4229 61.823 14.4366 61.7556 14.4632 61.6928C14.4898 61.6301 14.5288 61.5733 14.5778 61.526C14.6268 61.4786 14.6848 61.4416 14.7484 61.4171C14.812 61.3927 14.8799 61.3813 14.948 61.3836ZM59.3472 25.6735H62.2524C62.6724 25.726 62.8299 26.2073 62.7161 26.7935V34.0826C62.6636 34.5376 62.6111 34.8001 61.9898 34.8701H60.6948C60.5355 35.4819 60.2359 36.0481 59.8198 36.5239L56.3196 39.149C55.8844 38.9744 55.5238 38.6533 55.3001 38.2411C55.0765 37.8289 55.0038 37.3515 55.0946 36.8914C56.5296 36.4889 59.0147 36.0164 59.321 35.6314L59.9073 34.8439L59.0322 34.7651C58.7697 34.5814 58.726 34.2838 58.5685 33.8901L58.7522 26.3035C58.5772 25.8223 59.1197 25.6473 59.3647 25.6735H59.3472ZM34.3913 55.2234C34.3913 55.2234 34.6013 52.9133 36.3163 52.3708C38.0314 51.8283 47.4818 51.4345 47.4818 51.4345C47.4818 51.4345 48.3568 51.4345 48.173 52.5458C47.9893 53.6571 47.753 55.3197 46.493 55.3197C45.2329 55.3197 35.6776 55.7047 34.3913 55.2234ZM31.4862 56.361C29.9636 56.361 28.3973 56.361 26.7785 56.361C23.7683 56.361 20.6532 56.2734 17.3981 56.1684C22.097 56.2384 26.8047 56.291 31.4862 56.3785V56.361ZM8.17524 55.7397C6.52143 55.6434 4.86761 55.5297 3.2313 55.4072C2.96291 55.3805 2.70023 55.3126 2.45252 55.2059C2.45252 55.0047 2.45252 54.8034 2.45252 54.6021L6.82769 54.6634C6.9227 53.9068 6.86317 53.1387 6.65268 52.4058C6.25017 51.3645 5.06887 51.2333 4.37759 51.102C4.11508 51.0582 3.59881 51.0232 3.06504 50.9882C3.85305 48.8813 5.08906 46.9706 6.68768 45.388C6.68768 45.1955 6.74894 45.003 6.76644 44.8018L8.17524 55.7397Z" fill="white"/>
</svg>
